<?xml version="1.0" encoding="UTF-8"?>
<svg id="Layer_2" data-name="Layer 2" xmlns="http://www.w3.org/2000/svg" viewBox="0 0 272.76 255.65">
  <defs>
    <style>
      .cls-1 {
        fill: #f8ebff;
      }

      .cls-2 {
        fill: #e3baf5;
      }

      .cls-3 {
        fill: #bd71c6;
      }

      .cls-4 {
        fill: #432a5e;
      }

      .cls-5 {
        fill: #5c3082;
      }

      .cls-6 {
        fill: #fff;
        stroke: #000;
        stroke-miterlimit: 10;
      }
    </style>
  </defs>
  <g id="Layer_2-2" data-name="Layer 2">
    <g>
      <g id="Layer_2-2" data-name="Layer 2-2">
        <polygon class="cls-2" points="41.38 38.32 109.38 54.32 104.38 206.32 41.38 38.32"/>
        <polygon class="cls-1" points="84.38 2.32 41.38 38.32 108.33 53.42 84.38 2.32"/>
        <polygon class="cls-6" points="86.63 4.64 110.63 53.42 230.46 38.32 188.38 3.32 136.38 25 86.63 4.64"/>
        <polygon class="cls-3" points="109.38 54.32 103.99 205.42 137.38 138.32 227.25 40.32 109.38 54.32"/>
        <polygon class="cls-5" points="168.38 207.32 136.38 140.33 228.15 40.32 228.15 46.79 168.38 207.32"/>
        <path class="cls-4" d="M188.72,0l-52.35,22.15L84.03,0,39.01,37.69,104.14,213.45l32.23-67.49,32.23,67.49L233.74,37.69,188.72,0Zm-.69,4.64l40.13,33.59-117.61,13.9L88.47,6.22l47.9,20.27L188.03,4.64h0ZM102.71,198.06L44.66,41.43l62.65,14.74-4.61,141.89h0Zm3.2-146.33l-60.45-14.22L83.69,5.5s22.22,46.23,22.22,46.23Zm.77,147.11l4.64-142.76,110.97-12.99-85.91,93.59h0l-29.69,62.16h0Zm61.46,4.35l-29.56-61.89L227.25,43.71l-59.1,159.49h0Z"/>
      </g>
      <g>
        <path class="cls-5" d="M0,220.29H3.54l7.04,24.84,9.88-24.84h.72l9.77,24.84,7.16-24.84h3.51l-9.91,34.48h-.64l-10.23-26.09-10.43,26.09h-.64L0,220.29Z"/>
        <path class="cls-5" d="M48.92,219.42h3.28v14.41c1.33-1.75,2.79-3.06,4.38-3.93s3.32-1.3,5.18-1.3,3.6,.48,5.07,1.45,2.57,2.27,3.27,3.9,1.05,4.19,1.05,7.68v13.12h-3.28v-12.16c0-2.94-.12-4.9-.35-5.88-.41-1.69-1.14-2.96-2.21-3.81s-2.47-1.28-4.21-1.28c-1.98,0-3.76,.66-5.33,1.97s-2.61,2.94-3.11,4.88c-.31,1.25-.47,3.56-.47,6.94v9.35h-3.28v-35.34h0Z"/>
        <path class="cls-5" d="M80.77,218.76c.75,0,1.38,.27,1.91,.8s.79,1.17,.79,1.92-.26,1.37-.79,1.9-1.17,.8-1.91,.8-1.36-.27-1.89-.8-.79-1.16-.79-1.9,.26-1.39,.79-1.92,1.16-.8,1.89-.8Zm-1.63,10.5h3.28v25.5h-3.28v-25.5Z"/>
        <path class="cls-5" d="M93.55,219.79h3.28v9.47h5.2v2.84h-5.2v22.66h-3.28v-22.66h-4.48v-2.84h4.48v-9.47Z"/>
        <path class="cls-5" d="M129.86,246.3l2.77,1.45c-.91,1.78-1.96,3.22-3.14,4.31s-2.53,1.93-4.01,2.5c-1.49,.57-3.17,.86-5.04,.86-4.16,0-7.41-1.36-9.76-4.09s-3.52-5.81-3.52-9.25c0-3.23,.99-6.12,2.98-8.65,2.52-3.22,5.89-4.83,10.11-4.83s7.82,1.65,10.42,4.95c1.85,2.33,2.78,5.23,2.82,8.72h-22.95c.06,2.96,1.01,5.39,2.84,7.28,1.83,1.89,4.09,2.84,6.78,2.84,1.3,0,2.56-.23,3.79-.68s2.27-1.05,3.13-1.8,1.79-1.95,2.79-3.62h-.01Zm0-6.86c-.44-1.75-1.08-3.15-1.91-4.2-.84-1.05-1.94-1.89-3.32-2.53s-2.82-.96-4.34-.96c-2.5,0-4.65,.8-6.45,2.41-1.31,1.17-2.31,2.93-2.98,5.27h19Z"/>
        <path class="cls-5" d="M138,248.34l2.93-1.76c2.06,3.8,4.45,5.7,7.15,5.7,1.16,0,2.24-.27,3.26-.81s1.79-1.26,2.32-2.17,.8-1.87,.8-2.88c0-1.16-.39-2.29-1.17-3.4-1.08-1.53-3.05-3.38-5.91-5.53-2.88-2.17-4.66-3.74-5.37-4.71-1.22-1.62-1.83-3.38-1.83-5.27,0-1.5,.36-2.87,1.08-4.1s1.73-2.21,3.04-2.92,2.72-1.07,4.25-1.07c1.62,0,3.14,.4,4.56,1.21s2.91,2.29,4.49,4.44l-2.81,2.13c-1.3-1.72-2.4-2.85-3.32-3.4s-1.91-.82-2.99-.82c-1.39,0-2.53,.42-3.41,1.27s-1.32,1.88-1.32,3.12c0,.75,.16,1.48,.47,2.18s.88,1.47,1.71,2.3c.45,.44,1.94,1.59,4.45,3.45,2.98,2.2,5.03,4.16,6.14,5.88s1.66,3.45,1.66,5.18c0,2.5-.95,4.67-2.85,6.52s-4.21,2.77-6.93,2.77c-2.09,0-3.99-.56-5.7-1.68s-3.27-2.99-4.71-5.61v-.02Z"/>
        <path class="cls-5" d="M169.23,219.79h3.28v9.47h5.2v2.84h-5.2v22.66h-3.28v-22.66h-4.48v-2.84h4.48v-9.47Z"/>
        <path class="cls-5" d="M196.15,228.61c3.93,0,7.18,1.42,9.77,4.27,2.35,2.59,3.52,5.66,3.52,9.21s-1.24,6.68-3.72,9.34-5.67,4-9.57,4-7.11-1.33-9.59-4c-2.48-2.66-3.72-5.78-3.72-9.34s1.17-6.59,3.52-9.19c2.58-2.86,5.85-4.29,9.79-4.29h0Zm0,3.21c-2.73,0-5.07,1.01-7.03,3.02-1.96,2.02-2.94,4.45-2.94,7.31,0,1.84,.45,3.56,1.34,5.16s2.1,2.82,3.62,3.69c1.52,.87,3.19,1.3,5.01,1.3s3.49-.43,5.01-1.3c1.52-.87,2.73-2.1,3.62-3.69s1.34-3.31,1.34-5.16c0-2.86-.98-5.3-2.95-7.31s-4.31-3.02-7.02-3.02h0Z"/>
        <path class="cls-5" d="M216.95,229.26h3.28v4.57c1.31-1.75,2.77-3.06,4.36-3.93s3.33-1.3,5.2-1.3,3.6,.48,5.07,1.45,2.57,2.27,3.27,3.91,1.05,4.2,1.05,7.66v13.12h-3.28v-12.16c0-2.94-.12-4.9-.37-5.88-.38-1.69-1.11-2.96-2.19-3.81s-2.48-1.28-4.22-1.28c-1.99,0-3.76,.66-5.33,1.97s-2.61,2.94-3.11,4.88c-.31,1.27-.47,3.58-.47,6.94v9.35h-3.28v-25.5h.02Z"/>
        <path class="cls-5" d="M269.13,246.3l2.77,1.45c-.91,1.78-1.96,3.22-3.14,4.31s-2.53,1.93-4.01,2.5c-1.49,.57-3.17,.86-5.04,.86-4.16,0-7.41-1.36-9.76-4.09-2.35-2.73-3.52-5.81-3.52-9.25,0-3.23,.99-6.12,2.98-8.65,2.52-3.22,5.89-4.83,10.11-4.83s7.82,1.65,10.42,4.95c1.85,2.33,2.78,5.23,2.82,8.72h-22.95c.06,2.96,1.01,5.39,2.84,7.28s4.09,2.84,6.78,2.84c1.3,0,2.56-.23,3.79-.68s2.27-1.05,3.13-1.8c.86-.75,1.79-1.95,2.79-3.62h-.01Zm0-6.86c-.44-1.75-1.08-3.15-1.91-4.2-.84-1.05-1.94-1.89-3.32-2.53s-2.82-.96-4.34-.96c-2.5,0-4.65,.8-6.45,2.41-1.31,1.17-2.31,2.93-2.98,5.27h19Z"/>
      </g>
    </g>
  </g>
</svg>