<svg width="39" height="39" viewBox="0 0 39 39" fill="none" xmlns="http://www.w3.org/2000/svg">
<g clip-path="url(#clip0_297_1857)">
<path fill-rule="evenodd" clip-rule="evenodd" d="M5.53556 0.2184C3.56119 0.4251 2.51794 0.80535 1.77206 1.3884C1.02863 1.9734 0.543562 2.7924 0.277875 4.33875C0.00487461 5.9319 0 8.0418 0 11.0663V27.7778C0.964527 27.2496 2.03565 26.8584 3.16631 26.6214C4.45331 26.3504 5.95481 26.3504 8.15588 26.3523H39V11.0682C39 8.0418 38.9951 5.9319 38.7221 4.33875C38.4564 2.7924 37.9714 1.9734 37.2279 1.3884C36.4821 0.80535 35.4388 0.4251 33.4644 0.2184C31.4316 0.00389998 28.7406 0 24.8796 0H14.1204C10.2594 0 7.56844 0.00389998 5.53556 0.2184ZM6.72506 8.96025C6.72506 8.08665 7.62694 7.3788 8.74088 7.3788H30.2591C30.788 7.37516 31.2971 7.53934 31.6749 7.8354C32.0527 8.13145 32.2685 8.53523 32.2749 8.9583C32.2691 9.38171 32.0537 9.78599 31.6758 10.0825C31.2979 10.3789 30.7884 10.5434 30.2591 10.5398H8.74088C8.21202 10.5434 7.70292 10.3792 7.32509 10.0832C6.94725 9.7871 6.73149 9.38332 6.72506 8.96025ZM8.74088 14.7576C8.21202 14.754 7.70292 14.9181 7.32509 15.2142C6.94725 15.5103 6.73149 15.914 6.72506 16.3371C6.72506 17.2107 7.62694 17.9186 8.74088 17.9186H22.1886C22.7178 17.9227 23.2276 17.7588 23.6059 17.4626C23.9843 17.1665 24.2004 16.7625 24.2068 16.3391C24.201 15.9153 23.9852 15.5107 23.6068 15.2142C23.2283 14.9177 22.7183 14.7534 22.1886 14.7576H8.74088Z" fill="#F6DFFF"/>
<path d="M8.46543 29.5132H39C38.9927 31.7167 38.9488 33.3625 38.7246 34.6612C38.4589 36.2076 37.9738 37.0266 37.2304 37.6116C36.4845 38.1946 35.4412 38.5749 33.4669 38.7816C31.434 38.9961 28.743 39 24.882 39H14.1204C10.2594 39 7.56843 38.9961 5.53556 38.7835C3.56118 38.5749 2.51793 38.1946 1.77206 37.6116C1.02862 37.0266 0.543557 36.2076 0.277869 34.6612C0.177932 34.0762 0.11212 33.4191 0.0731201 32.6722C0.407943 31.9422 0.959273 31.288 1.67976 30.766C2.40025 30.2439 3.26837 29.8696 4.20956 29.6751C4.91643 29.5269 5.83537 29.5132 8.46543 29.5132Z" fill="#F6DFFF"/>
</g>
<defs>
<clipPath id="clip0_297_1857">
<rect width="39" height="39" fill="white"/>
</clipPath>
</defs>
</svg>
