<svg width="43" height="43" viewBox="0 0 43 43" fill="none" xmlns="http://www.w3.org/2000/svg">
<path d="M21.9181 29.025C19.9223 29.025 18.0083 28.2322 16.5971 26.821C15.1859 25.4098 14.3931 23.4958 14.3931 21.5C14.3931 19.5042 15.1859 17.5902 16.5971 16.179C18.0083 14.7678 19.9223 13.975 21.9181 13.975C23.9138 13.975 25.8278 14.7678 27.239 16.179C28.6503 17.5902 29.4431 19.5042 29.4431 21.5C29.4431 23.4958 28.6503 25.4098 27.239 26.821C25.8278 28.2322 23.9138 29.025 21.9181 29.025ZM37.8926 23.5855C37.9786 22.8975 38.0431 22.2095 38.0431 21.5C38.0431 20.7905 37.9786 20.081 37.8926 19.35L42.4291 15.8455C42.8376 15.523 42.9451 14.9425 42.6871 14.4695L38.3871 7.0305C38.1291 6.5575 37.5486 6.364 37.0756 6.5575L31.7221 8.7075C30.6041 7.869 29.4431 7.138 28.0886 6.6005L27.2931 0.903004C27.2494 0.649771 27.1175 0.420172 26.9207 0.25489C26.724 0.0896074 26.475 -0.000687515 26.2181 3.94196e-06H17.6181C17.0806 3.94196e-06 16.6291 0.387004 16.5431 0.903004L15.7476 6.6005C14.3931 7.138 13.2321 7.869 12.1141 8.7075L6.76056 6.5575C6.28756 6.364 5.70706 6.5575 5.44906 7.0305L1.14906 14.4695C0.869563 14.9425 0.998563 15.523 1.40706 15.8455L5.94356 19.35C5.85756 20.081 5.79306 20.7905 5.79306 21.5C5.79306 22.2095 5.85756 22.8975 5.94356 23.5855L1.40706 27.1545C0.998563 27.477 0.869563 28.0575 1.14906 28.5305L5.44906 35.9695C5.70706 36.4425 6.28756 36.6145 6.76056 36.4425L12.1141 34.271C13.2321 35.131 14.3931 35.862 15.7476 36.3995L16.5431 42.097C16.6291 42.613 17.0806 43 17.6181 43H26.2181C26.7556 43 27.2071 42.613 27.2931 42.097L28.0886 36.3995C29.4431 35.8405 30.6041 35.131 31.7221 34.271L37.0756 36.4425C37.5486 36.6145 38.1291 36.4425 38.3871 35.9695L42.6871 28.5305C42.9451 28.0575 42.8376 27.477 42.4291 27.1545L37.8926 23.5855Z" fill="#F6DFFF"/>
</svg>
