<svg width="16" height="22" viewBox="0 0 16 22" fill="none" xmlns="http://www.w3.org/2000/svg">
<path fill-rule="evenodd" clip-rule="evenodd" d="M15.3892 9.81063C15.7803 10.1205 16 10.5407 16 10.9788C16 11.4169 15.7803 11.8371 15.3892 12.1469L3.58695 21.4938C3.3945 21.6516 3.16429 21.7774 2.90975 21.864C2.65521 21.9506 2.38145 21.9962 2.10443 21.9981C1.82741 22 1.55269 21.9582 1.29629 21.8751C1.03989 21.7921 0.806952 21.6694 0.611063 21.5142C0.415175 21.3591 0.26026 21.1746 0.155359 20.9716C0.0504581 20.7685 -0.00232844 20.5509 7.87726e-05 20.3316C0.00248598 20.1122 0.0600393 19.8954 0.16938 19.6938C0.278721 19.4922 0.43766 19.3099 0.636923 19.1575L10.9641 10.9788L0.636923 2.8001C0.256886 2.48848 0.0465986 2.07112 0.0513521 1.6379C0.0561056 1.20468 0.275519 0.790277 0.662336 0.483935C1.04915 0.177593 1.57242 0.003827 2.11945 6.24597e-05C2.66647 -0.00370208 3.19347 0.162836 3.58695 0.463808L15.3892 9.81063Z" fill="black"/>
</svg>
