<svg width="290" height="97" viewBox="0 0 290 97" fill="none" xmlns="http://www.w3.org/2000/svg">
<path d="M253.05 80.6V63.42H265.47V65.45H255.32V70.71H264.82V72.73H255.32V78.58H265.87V80.61H253.05V80.6Z" fill="#231F20"/>
<path d="M253.05 33.27V16.09H265.47V18.12H255.32V23.38H264.82V25.4H255.32V31.25H265.87V33.28H253.05V33.27Z" fill="#231F20"/>
<path d="M200.89 33.27V18.12H195.23V16.09H208.85V18.12H203.17V33.27H200.9H200.89Z" fill="#231F20"/>
<path d="M195.26 80.6V63.42H197.59L206.61 76.91V63.42H208.79V80.6H206.46L197.44 67.1V80.6H195.26Z" fill="#231F20"/>
<path d="M136.38 72.24C136.38 69.39 137.15 67.16 138.68 65.54C140.21 63.92 142.19 63.12 144.61 63.12C146.2 63.12 147.63 63.5 148.9 64.26C150.17 65.02 151.14 66.07 151.81 67.43C152.48 68.79 152.81 70.32 152.81 72.04C152.81 73.76 152.46 75.34 151.76 76.72C151.06 78.1 150.06 79.14 148.77 79.84C147.48 80.54 146.09 80.9 144.6 80.9C142.98 80.9 141.54 80.51 140.26 79.73C138.98 78.95 138.02 77.88 137.37 76.53C136.72 75.18 136.39 73.75 136.39 72.24H136.38ZM138.72 72.28C138.72 74.35 139.28 75.98 140.39 77.17C141.5 78.36 142.9 78.96 144.58 78.96C146.26 78.96 147.7 78.36 148.8 77.16C149.9 75.96 150.46 74.25 150.46 72.04C150.46 70.64 150.22 69.42 149.75 68.38C149.28 67.34 148.59 66.53 147.68 65.95C146.77 65.37 145.75 65.09 144.62 65.09C143.01 65.09 141.63 65.64 140.47 66.75C139.31 67.86 138.73 69.7 138.73 72.29L138.72 72.28Z" fill="#231F20"/>
<path d="M143.45 33.27V16.09H145.72V33.27H143.45Z" fill="#231F20"/>
<path d="M80.41 33.27V16.09H82.68V23.14H91.61V16.09H93.88V33.27H91.61V25.17H82.68V33.27H80.41Z" fill="#231F20"/>
<path d="M86.02 80.6V65.45H80.36V63.42H93.98V65.45H88.3V80.6H86.03H86.02Z" fill="#231F20"/>
<path d="M22.87 75.08L25.01 74.89C25.11 75.75 25.35 76.45 25.72 77.01C26.09 77.57 26.67 78.01 27.45 78.35C28.23 78.69 29.11 78.86 30.09 78.86C30.96 78.86 31.72 78.73 32.39 78.47C33.06 78.21 33.55 77.86 33.87 77.41C34.19 76.96 34.36 76.47 34.36 75.94C34.36 75.41 34.2 74.93 33.89 74.53C33.58 74.13 33.06 73.79 32.34 73.52C31.88 73.34 30.86 73.06 29.28 72.68C27.7 72.3 26.6 71.94 25.96 71.61C25.14 71.18 24.53 70.65 24.13 70.01C23.73 69.37 23.53 68.66 23.53 67.87C23.53 67 23.78 66.19 24.27 65.44C24.76 64.69 25.48 64.11 26.43 63.72C27.38 63.33 28.43 63.13 29.58 63.13C30.85 63.13 31.98 63.34 32.95 63.75C33.92 64.16 34.67 64.76 35.19 65.56C35.71 66.36 35.99 67.26 36.03 68.27L33.85 68.43C33.73 67.34 33.34 66.52 32.66 65.97C31.98 65.42 30.99 65.14 29.67 65.14C28.35 65.14 27.29 65.39 26.66 65.9C26.03 66.41 25.72 67.01 25.72 67.72C25.72 68.34 25.94 68.84 26.39 69.24C26.83 69.64 27.97 70.05 29.82 70.46C31.67 70.87 32.94 71.24 33.62 71.56C34.62 72.02 35.36 72.6 35.83 73.31C36.3 74.02 36.54 74.83 36.54 75.75C36.54 76.67 36.28 77.53 35.75 78.33C35.22 79.13 34.47 79.77 33.49 80.22C32.51 80.67 31.41 80.89 30.18 80.89C28.63 80.89 27.32 80.66 26.27 80.21C25.22 79.76 24.39 79.08 23.8 78.17C23.21 77.26 22.89 76.23 22.86 75.08H22.87Z" fill="#231F20"/>
<path d="M288.17 48.34H230.74V95.68H288.17V48.34Z" stroke="#231F20" stroke-width="1.95" stroke-miterlimit="10"/>
<path d="M288.17 1H230.74V48.34H288.17V1Z" stroke="#231F20" stroke-width="1.95" stroke-miterlimit="10"/>
<path d="M230.73 1H173.3V48.34H230.73V1Z" stroke="#231F20" stroke-width="1.95" stroke-miterlimit="10"/>
<path d="M230.73 48.34H173.3V95.68H230.73V48.34Z" stroke="#231F20" stroke-width="1.95" stroke-miterlimit="10"/>
<path d="M173.3 48.34H115.87V95.68H173.3V48.34Z" stroke="#231F20" stroke-width="1.95" stroke-miterlimit="10"/>
<path d="M173.3 1H115.87V48.34H173.3V1Z" stroke="#231F20" stroke-width="1.95" stroke-miterlimit="10"/>
<path d="M115.87 1H58.44V48.34H115.87V1Z" stroke="#231F20" stroke-width="1.95" stroke-miterlimit="10"/>
<path d="M115.87 48.34H58.44V95.68H115.87V48.34Z" stroke="#231F20" stroke-width="1.95" stroke-miterlimit="10"/>
<path d="M58.43 48.34H1V95.68H58.43V48.34Z" stroke="#231F20" stroke-width="1.95" stroke-miterlimit="10"/>
<path d="M58.43 1H1V48.34H58.43V1Z" stroke="#231F20" stroke-width="1.95" stroke-miterlimit="10"/>
<path d="M23.23 33.27L18.67 16.09H21L23.61 27.35C23.89 28.53 24.13 29.7 24.34 30.87C24.78 29.03 25.04 27.98 25.11 27.69L28.38 16.09H31.12L33.58 24.79C34.2 26.95 34.64 28.97 34.92 30.87C35.14 29.78 35.42 28.54 35.78 27.13L38.48 16.09H40.77L36.06 33.27H33.87L30.25 20.18C29.95 19.09 29.77 18.41 29.71 18.16C29.53 18.95 29.36 19.62 29.21 20.18L25.57 33.27H23.25H23.23Z" fill="#231F20"/>
</svg>
